<svg xmlns="http://www.w3.org/2000/svg" xmlns:xlink="http://www.w3.org/1999/xlink" width="576" height="78" viewBox="0 0 576 78"><defs><path id="logo_svg__a" d="M.266.177H27.91v76.894H.266z"/><path id="logo_svg__c" d="M0 77.071h575.796V.177H0z"/></defs><g fill="none" fill-rule="evenodd"><path fill="#FAD2CF" d="M278.09 77.823h31.334V.929H278.09z"/><path fill="#AECBFA" d="M524.765 77.823H556.1V.929h-31.335z"/><path fill="#A8DAB5" d="M0 77.823h31.334V.929H0z"/><g transform="translate(0 .751)"><g transform="translate(88.687)"><mask id="logo_svg__b" fill="#fff"><use xlink:href="#logo_svg__a"/></mask><path fill="#FBBC04" d="M27.91 77.071V.177C12.643.177.266 12.488.266 27.674v21.9c0 15.187 12.377 27.497 27.644 27.497" mask="url(#logo_svg__b)"/></g><mask id="logo_svg__d" fill="#fff"><use xlink:href="#logo_svg__c"/></mask><path fill="#FDE293" d="M116.598 77.071h35.033V.177h-35.033z" mask="url(#logo_svg__d)"/><path fill="#AECBFA" d="M170.597.177l44.633 76.894V.177z" mask="url(#logo_svg__d)"/><path fill="#4285F4" d="M259.863.177H215.23v76.894z" mask="url(#logo_svg__d)"/><path fill="#34A853" d="M31.333.177c21.348 0 38.653 17.214 38.653 38.448 0 21.233-17.305 38.446-38.653 38.446V.177z" mask="url(#logo_svg__d)"/><path stroke="#0D652D" stroke-width="1.106" d="M31.333 62.39c13.196 0 23.894-10.64 23.894-23.765 0-13.126-10.698-23.766-23.894-23.766H15.667v18.19" mask="url(#logo_svg__d)"/><path fill="#FBBC04" d="M466.258 57.848c-16.01 0-28.99-12.91-28.99-28.835 0-15.926 12.98-28.836 28.99-28.836v57.67z" mask="url(#logo_svg__d)"/><path fill="#EA4335" d="M309.424 19.4h25.773V.178h-25.773z" mask="url(#logo_svg__d)"/><path fill="#4285F4" d="M505.068 19.4h19.698V.178h-19.698zM556.1 19.4h19.697V.178H556.1z" mask="url(#logo_svg__d)"/><path fill="#EA4335" d="M309.424 57.848h19.327V38.625h-19.327z" mask="url(#logo_svg__d)"/><path fill="#FBBC04" d="M466.258 19.4h25.77V.178h-25.77z" mask="url(#logo_svg__d)"/><path fill="#FDE293" d="M466.258 19.4v38.448H440.49v19.223h25.77c16.01 0 28.99-12.91 28.99-28.835 0-15.926-12.98-28.836-28.99-28.836" mask="url(#logo_svg__d)"/><path stroke="#E37400" stroke-width="1.106" d="M452.743 42.753c-3.586-3.49-5.812-8.357-5.812-13.74 0-10.617 8.654-19.225 19.328-19.225h12.883" mask="url(#logo_svg__d)"/><path stroke="#174EA6" stroke-width="1.106" d="M514.917 9.789h51.031"/><path fill="#34A853" d="M381.27 77.071V.177c-15.267 0-27.644 12.311-27.644 27.497v21.9c0 15.187 12.377 27.497 27.644 27.497" mask="url(#logo_svg__d)"/><path fill="#A8DAB5" d="M381.27 77.071h35.033V.177h-35.032z" mask="url(#logo_svg__d)"/><path stroke="#0D652D" stroke-width="1.106" d="M372.648 27.011l-4.99-.033" mask="url(#logo_svg__d)"/><path stroke="#FDE293" stroke-width="1.106" d="M416.303 27.059h-34.317"/><path stroke="#0D652D" stroke-width="1.106" d="M416.303 50.19h-10.246M396.71 50.19h-7.79"/><path stroke="#174EA6" stroke-width="1.106" d="M220.143 45.549c0-2.699-2.2-4.887-4.913-4.887s-4.913 2.188-4.913 4.887c0 2.698 2.2 4.887 4.913 4.887 2.714 0 4.913-2.189 4.913-4.887zM227.505 15.938c0-2.698 2.198-4.886 4.913-4.886 2.713 0 4.911 2.188 4.911 4.886 0 2.7-2.198 4.887-4.911 4.887-2.715 0-4.913-2.187-4.913-4.887zM229.96 20.17l-12.3 21.194M202.956 15.938c0-2.698-2.2-4.886-4.913-4.886-2.714 0-4.912 2.188-4.912 4.886 0 2.7 2.198 4.887 4.912 4.887s4.913-2.187 4.913-4.887zM200.5 20.17l12.302 21.194" mask="url(#logo_svg__d)"/><path stroke="#0D652D" stroke-width="1.106" d="M15.666 44.2l-5.605-5.575 5.605-5.576 5.606 5.576zM406.057 50.19l-4.673-4.649-4.674 4.649 4.674 4.648zM382.086 27.059l-4.673-4.648-4.673 4.648 4.673 4.648z" mask="url(#logo_svg__d)"/><path stroke="#174EA6" stroke-width="1.106" d="M535.76 26.236c0-2.567 2.091-4.648 4.673-4.648 2.58 0 4.673 2.08 4.673 4.648 0 2.567-2.092 4.648-4.673 4.648-2.582 0-4.674-2.081-4.674-4.648zM535.76 44.054c0-2.567 2.091-4.647 4.673-4.647 2.58 0 4.673 2.08 4.673 4.647 0 2.568-2.092 4.649-4.673 4.649-2.582 0-4.674-2.081-4.674-4.649zM535.76 61.873c0-2.567 2.091-4.648 4.673-4.648 2.58 0 4.673 2.08 4.673 4.648 0 2.568-2.092 4.649-4.673 4.649-2.582 0-4.674-2.081-4.674-4.649z" mask="url(#logo_svg__d)"/><path stroke="#E37400" stroke-width="1.106" d="M457.12 67.46h9.138c10.674 0 19.327-8.607 19.327-19.224s-8.653-19.223-19.327-19.223" mask="url(#logo_svg__d)"/><path stroke="#A50E0E" stroke-width="1.106" d="M313.668 48.169h-19.91v19.805" mask="url(#logo_svg__d)"/><path stroke="#FBBC04" stroke-width="1.102" d="M322.269 9.782h-28.512v28.843" mask="url(#logo_svg__d)"/><path stroke="#E37400" stroke-width="1.106" d="M151.631 27.059h-35.173M151.631 38.624h-35.173M151.631 50.19h-35.173"/></g></g></svg>