<svg id="Layer_1" data-name="Layer 1" xmlns="http://www.w3.org/2000/svg" xmlns:xlink="http://www.w3.org/1999/xlink" viewBox="0 0 107.91 53.33"><defs><style>.cls-1{fill:url(#linear-gradient);}.cls-2{fill:url(#linear-gradient-2);}</style><linearGradient id="linear-gradient" x1="24.28" x2="24.28" y2="53.33" gradientUnits="userSpaceOnUse"><stop offset="0" stop-color="#ea4434"/><stop offset="0.49" stop-color="#ea4434"/><stop offset="0.51" stop-color="#7479a8"/><stop offset="0.92" stop-color="#537dbe"/><stop offset="1" stop-color="#537dbe"/></linearGradient><linearGradient id="linear-gradient-2" x1="83.63" x2="83.63" y2="53.33" gradientUnits="userSpaceOnUse"><stop offset="0" stop-color="#019c57"/><stop offset="0.49" stop-color="#019c57"/><stop offset="0.5" stop-color="#f7bb16"/><stop offset="1" stop-color="#f7bb16"/></linearGradient></defs><title>logo icon-01</title><path class="cls-1" d="M44,36.88,26.4,26.69,44.15,16.45A8.81,8.81,0,0,0,35.34,1.18L4.52,19a8.71,8.71,0,0,0-1.61,1.19c-.12.11-.24.24-.36.36a1.59,1.59,0,0,0-.13.13,9.37,9.37,0,0,0-1.24,1.65h0a8.82,8.82,0,0,0,3.23,12L35.23,52.14A8.81,8.81,0,1,0,44,36.88Z"/><path class="cls-2" d="M63.87,36.88,81.51,26.69,63.76,16.45A8.81,8.81,0,1,1,72.57,1.18L103.39,19a8.64,8.64,0,0,1,1.6,1.19c.13.11.25.24.37.36l.13.13a9.37,9.37,0,0,1,1.24,1.65h0a8.82,8.82,0,0,1-3.23,12L72.68,52.14a8.81,8.81,0,1,1-8.81-15.26Z"/></svg>