<svg id="Layer_1" data-name="Layer 1" xmlns="http://www.w3.org/2000/svg" xmlns:xlink="http://www.w3.org/1999/xlink" viewBox="0 0 298.92 66.41"><defs><style>.cls-1{fill:url(#linear-gradient);}.cls-2{fill:url(#linear-gradient-2);}.cls-3{fill:#fff;}</style><linearGradient id="linear-gradient" x1="24.28" y1="4.37" x2="24.28" y2="57.69" gradientUnits="userSpaceOnUse"><stop offset="0" stop-color="#ea4434"/><stop offset="0.49" stop-color="#ea4434"/><stop offset="0.51" stop-color="#7479a8"/><stop offset="0.92" stop-color="#537dbe"/><stop offset="1" stop-color="#537dbe"/></linearGradient><linearGradient id="linear-gradient-2" x1="83.63" y1="4.37" x2="83.63" y2="57.69" gradientUnits="userSpaceOnUse"><stop offset="0" stop-color="#019c57"/><stop offset="0.49" stop-color="#019c57"/><stop offset="0.5" stop-color="#f7bb16"/><stop offset="1" stop-color="#f7bb16"/></linearGradient></defs><title>logo</title><path class="cls-1" d="M44,41.25,26.4,31.06,44.15,20.81A8.81,8.81,0,1,0,35.34,5.55L4.52,23.35a8.71,8.71,0,0,0-1.61,1.19c-.12.11-.24.24-.36.36a1.59,1.59,0,0,0-.13.13,9.37,9.37,0,0,0-1.24,1.65h0a8.82,8.82,0,0,0,3.23,12L35.23,56.51A8.81,8.81,0,1,0,44,41.25Z"/><path class="cls-2" d="M63.87,41.25,81.51,31.06,63.76,20.81A8.81,8.81,0,1,1,72.57,5.55l30.82,17.8a8.64,8.64,0,0,1,1.6,1.19c.13.11.25.24.37.36l.13.13a9.37,9.37,0,0,1,1.24,1.65h0a8.82,8.82,0,0,1-3.23,12L72.68,56.51a8.81,8.81,0,1,1-8.81-15.26Z"/><path class="cls-3" d="M129.29,13.25h10a5.28,5.28,0,0,1,.14.83,7.89,7.89,0,0,1,.06,1,11.32,11.32,0,0,1-.6,3.71,8.48,8.48,0,0,1-1.88,3.1,9.48,9.48,0,0,1-3.28,2.26,11.23,11.23,0,0,1-4.36.79,11.07,11.07,0,0,1-4.19-.79,10.46,10.46,0,0,1-5.73-5.61,10.49,10.49,0,0,1-.85-4.26,10.49,10.49,0,0,1,.85-4.26,10.68,10.68,0,0,1,2.31-3.38,10.41,10.41,0,0,1,3.42-2.22,11.08,11.08,0,0,1,4.19-.8,10.94,10.94,0,0,1,4.43.86,9.92,9.92,0,0,1,3.35,2.36l-2.65,2.6a6.86,6.86,0,0,0-2.22-1.61,7.64,7.64,0,0,0-5.59-.06,6.54,6.54,0,0,0-2.19,1.41,6.75,6.75,0,0,0-1.5,2.21,7.27,7.27,0,0,0-.56,2.89,7.32,7.32,0,0,0,.56,2.9,6.49,6.49,0,0,0,1.51,2.2,6.92,6.92,0,0,0,2.21,1.42,7.25,7.25,0,0,0,2.68.5,7,7,0,0,0,2.75-.48,6.39,6.39,0,0,0,1.93-1.21,4.87,4.87,0,0,0,1-1.29,7.62,7.62,0,0,0,.64-1.76h-6.41Z"/><path class="cls-3" d="M141.91,4.05h6.9a12,12,0,0,1,4.36.74,9.31,9.31,0,0,1,3.31,2.09,9.18,9.18,0,0,1,2.09,3.24,11.24,11.24,0,0,1,.73,4.13,11.32,11.32,0,0,1-.73,4.16,9,9,0,0,1-2.09,3.23,9.57,9.57,0,0,1-3.31,2.08,12.19,12.19,0,0,1-4.36.74h-6.9Zm6.73,16.76a8.73,8.73,0,0,0,3-.47A5.89,5.89,0,0,0,153.74,19,5.55,5.55,0,0,0,155,17a8.22,8.22,0,0,0,.42-2.7,8.16,8.16,0,0,0-.42-2.69,5.51,5.51,0,0,0-1.29-2.07,5.74,5.74,0,0,0-2.13-1.32,8.49,8.49,0,0,0-3-.47h-2.88V20.81Z"/><path class="cls-3" d="M172.1,13.25h10a6.61,6.61,0,0,1,.15.83,7.89,7.89,0,0,1,.06,1,11.59,11.59,0,0,1-.6,3.71,8.5,8.5,0,0,1-1.89,3.1,9.54,9.54,0,0,1-3.27,2.26,11.3,11.3,0,0,1-4.36.79,11,11,0,0,1-4.19-.79,10.54,10.54,0,0,1-3.43-2.23,10.71,10.71,0,0,1-2.3-3.38,10.49,10.49,0,0,1-.86-4.26,10.49,10.49,0,0,1,.86-4.26,10.82,10.82,0,0,1,2.3-3.38A10.35,10.35,0,0,1,168,4.39a11.61,11.61,0,0,1,8.62.06A10,10,0,0,1,180,6.81l-2.65,2.6a6.62,6.62,0,0,0-5.16-2.17,7.13,7.13,0,0,0-2.65.5,6.59,6.59,0,0,0-2.2,1.41,6.75,6.75,0,0,0-1.5,2.21,7.26,7.26,0,0,0-.55,2.89,7.31,7.31,0,0,0,.55,2.9,6.51,6.51,0,0,0,1.52,2.2,6.88,6.88,0,0,0,2.2,1.42,7.25,7.25,0,0,0,2.68.5,7,7,0,0,0,2.75-.48,6.16,6.16,0,0,0,1.93-1.21,4.48,4.48,0,0,0,1-1.29,7.19,7.19,0,0,0,.64-1.76H172.1Z"/><path class="cls-3" d="M191.77,4.05h6.9a12,12,0,0,1,4.36.74,9.35,9.35,0,0,1,3.3,2.09,9.07,9.07,0,0,1,2.1,3.24,11.45,11.45,0,0,1,.73,4.13,11.53,11.53,0,0,1-.73,4.16,8.86,8.86,0,0,1-2.1,3.23,9.62,9.62,0,0,1-3.3,2.08,12.23,12.23,0,0,1-4.36.74h-6.9Zm6.73,16.76a8.67,8.67,0,0,0,3-.47A5.85,5.85,0,0,0,203.6,19,5.4,5.4,0,0,0,204.88,17a8,8,0,0,0,.43-2.7,7.91,7.91,0,0,0-.43-2.69,5.36,5.36,0,0,0-1.28-2.07,5.71,5.71,0,0,0-2.14-1.32,8.44,8.44,0,0,0-3-.47h-2.88V20.81Z"/><path class="cls-3" d="M224.61,21.09A7.88,7.88,0,0,1,222,23.86a7.3,7.3,0,0,1-4,1.05,7.71,7.71,0,0,1-3-.55,7.1,7.1,0,0,1-2.35-1.56,7,7,0,0,1-1.55-2.35,7.75,7.75,0,0,1-.56-3,7.65,7.65,0,0,1,.54-2.86,7.2,7.2,0,0,1,3.81-4,7,7,0,0,1,2.92-.6,7.59,7.59,0,0,1,3,.56,6,6,0,0,1,2.2,1.54,6.67,6.67,0,0,1,1.34,2.32,9.1,9.1,0,0,1,.45,2.91v.34a1.83,1.83,0,0,0,0,.32,1.42,1.42,0,0,0,0,.31H214.26a3.8,3.8,0,0,0,.47,1.47,3.49,3.49,0,0,0,.88,1,3.29,3.29,0,0,0,1.16.6,4.22,4.22,0,0,0,1.28.19,3.61,3.61,0,0,0,2.12-.59,4.25,4.25,0,0,0,1.33-1.47Zm-3.4-5.41a2.53,2.53,0,0,0-.24-.83,2.89,2.89,0,0,0-.62-.85,3.26,3.26,0,0,0-1-.66,3.83,3.83,0,0,0-1.47-.26,3.4,3.4,0,0,0-2.11.69,3.58,3.58,0,0,0-1.28,1.91Z"/><path class="cls-3" d="M225.46,10.49h4.25l3.48,8.89h.2l3.5-8.89h4.22l-6,14h-3.68Z"/><path class="cls-3" d="M243.28,4.05h12.94V7.7h-9.09v5h8.18v3.65h-8.18v8.15h-3.85Z"/><path class="cls-3" d="M271.1,21.09a7.88,7.88,0,0,1-2.61,2.77,7.27,7.27,0,0,1-4,1.05,7.76,7.76,0,0,1-3-.55,7.1,7.1,0,0,1-2.35-1.56,7,7,0,0,1-1.55-2.35,7.75,7.75,0,0,1-.56-3,7.47,7.47,0,0,1,.55-2.86,7.22,7.22,0,0,1,3.8-4,7,7,0,0,1,2.92-.6,7.68,7.68,0,0,1,3,.56,6.07,6.07,0,0,1,2.19,1.54,6.51,6.51,0,0,1,1.34,2.32,9.1,9.1,0,0,1,.46,2.91v.34a1.91,1.91,0,0,0,0,.32,1.42,1.42,0,0,0,0,.31H260.75a4,4,0,0,0,.47,1.47,3.49,3.49,0,0,0,.88,1,3.38,3.38,0,0,0,1.16.6,4.27,4.27,0,0,0,1.28.19,3.67,3.67,0,0,0,2.13-.59A4.23,4.23,0,0,0,268,19.55Zm-3.39-5.41a2.34,2.34,0,0,0-.25-.83,2.89,2.89,0,0,0-.62-.85,3.26,3.26,0,0,0-1-.66,3.83,3.83,0,0,0-1.47-.26,3.4,3.4,0,0,0-2.11.69A3.64,3.64,0,0,0,261,15.68Z"/><path class="cls-3" d="M279.39,24.91a7.88,7.88,0,0,1-2.43-.34,6.71,6.71,0,0,1-1.86-.9,5.74,5.74,0,0,1-1.32-1.28,6,6,0,0,1-.83-1.47l3.34-1.42a3.59,3.59,0,0,0,1.29,1.61,3.28,3.28,0,0,0,1.81.53,3.15,3.15,0,0,0,1.63-.37,1,1,0,0,0,.1-1.81,5.16,5.16,0,0,0-1.73-.65l-2-.42a7.27,7.27,0,0,1-1.36-.46,5.24,5.24,0,0,1-1.27-.8,4,4,0,0,1-.94-1.17,3.22,3.22,0,0,1-.37-1.59,3.75,3.75,0,0,1,.44-1.83,4.21,4.21,0,0,1,1.21-1.35,5.89,5.89,0,0,1,1.82-.86,8.45,8.45,0,0,1,5.8.49,4.8,4.8,0,0,1,2.3,2.49l-3.22,1.31a2.4,2.4,0,0,0-1.16-1.19,3.51,3.51,0,0,0-1.54-.37,3,3,0,0,0-1.4.32,1,1,0,0,0-.6.84.86.86,0,0,0,.5.77,6.05,6.05,0,0,0,1.35.52l2.14.51a6.14,6.14,0,0,1,3.18,1.64,3.81,3.81,0,0,1,1,2.66,3.67,3.67,0,0,1-.43,1.74,4.67,4.67,0,0,1-1.21,1.47,5.73,5.73,0,0,1-1.88,1A7.49,7.49,0,0,1,279.39,24.91Z"/><path class="cls-3" d="M289,13.68h-2.45V10.49H289V6.21h3.73v4.28h3.42v3.19h-3.42v5.58a3.84,3.84,0,0,0,.1.93,1.58,1.58,0,0,0,.39.72,1.41,1.41,0,0,0,1.14.47,2.32,2.32,0,0,0,.77-.1,2.73,2.73,0,0,0,.54-.27l1.05,3.28a6.31,6.31,0,0,1-1.41.47,8.57,8.57,0,0,1-1.67.15,5.13,5.13,0,0,1-1.89-.33,4,4,0,0,1-1.41-.92A4.93,4.93,0,0,1,289,19.94Z"/><path class="cls-3" d="M120.56,57.91V33.84h8.71a7,7,0,0,1,4.9,1.89,6,6,0,0,1,2.05,4.67,5.08,5.08,0,0,1-3.26,5v.13a5.83,5.83,0,0,1,3,2.1A5.59,5.59,0,0,1,137,51.05,6.36,6.36,0,0,1,134.88,56a7.25,7.25,0,0,1-5.14,1.95Zm3.09-21.11v7.36h5.62A3.74,3.74,0,0,0,132,43.05a3.56,3.56,0,0,0,0-5.14,3.53,3.53,0,0,0-2.65-1.11Zm0,10.25V55h6.22a4,4,0,0,0,4-4,3.75,3.75,0,0,0-1.18-2.76,4,4,0,0,0-2.95-1.18Z"/><path class="cls-3" d="M146.24,40.9a7.67,7.67,0,0,1,5.41,1.83,6.53,6.53,0,0,1,2,5V57.91h-3V55.62h-.13a5.89,5.89,0,0,1-5.11,2.83,6.62,6.62,0,0,1-4.55-1.62,5.15,5.15,0,0,1-1.84-4A4.91,4.91,0,0,1,141,48.73a8.2,8.2,0,0,1,5.16-1.51,9.12,9.12,0,0,1,4.53,1v-.71a3.54,3.54,0,0,0-1.27-2.74,4.38,4.38,0,0,0-3-1.12,4.73,4.73,0,0,0-4.1,2.18l-2.73-1.71A7.6,7.6,0,0,1,146.24,40.9Zm-4,12a2.46,2.46,0,0,0,1,2,3.79,3.79,0,0,0,2.41.81,4.92,4.92,0,0,0,3.47-1.44,4.55,4.55,0,0,0,1.53-3.4,6.34,6.34,0,0,0-4-1.14,5.21,5.21,0,0,0-3.14.91A2.68,2.68,0,0,0,142.24,52.87Z"/><path class="cls-3" d="M160.22,57.91h-3.09V41.44h3v2.69h.14a4.46,4.46,0,0,1,1.93-2.24A5.41,5.41,0,0,1,165,41a5.8,5.8,0,0,1,2.29.4l-.94,3a5.34,5.34,0,0,0-1.82-.23,4,4,0,0,0-3,1.41,4.73,4.73,0,0,0-1.29,3.29Z"/><path class="cls-3" d="M167.38,49.67a8.71,8.71,0,0,1,2.38-6.28,8.14,8.14,0,0,1,6.09-2.49,8,8,0,0,1,6.05,2.49,8.65,8.65,0,0,1,2.42,6.28A8.6,8.6,0,0,1,181.9,56a8,8,0,0,1-6.05,2.49A8.14,8.14,0,0,1,169.76,56,8.71,8.71,0,0,1,167.38,49.67Zm3.09,0A6,6,0,0,0,172,54a5.29,5.29,0,0,0,7.66,0,6.05,6.05,0,0,0,1.54-4.31,6,6,0,0,0-1.54-4.26,5.21,5.21,0,0,0-7.66,0A5.93,5.93,0,0,0,170.47,49.67Z"/><path class="cls-3" d="M194,58.45a7.24,7.24,0,0,1-5.55-2.56,9.61,9.61,0,0,1,0-12.43A7.24,7.24,0,0,1,194,40.9a7.06,7.06,0,0,1,3.31.78,5.68,5.68,0,0,1,2.3,2h.14l-.14-2.29v-7.6h3.09V57.91h-2.95V55.62h-.14a5.68,5.68,0,0,1-2.3,2.05A7.06,7.06,0,0,1,194,58.45Zm.5-2.83A4.74,4.74,0,0,0,198.26,54a6.8,6.8,0,0,0,0-8.57,4.75,4.75,0,0,0-3.73-1.68,4.84,4.84,0,0,0-3.73,1.68,6.12,6.12,0,0,0-1.51,4.26,6,6,0,0,0,1.51,4.27A4.84,4.84,0,0,0,194.53,55.62Z"/><path class="cls-3" d="M212.58,40.9A7.66,7.66,0,0,1,218,42.73a6.54,6.54,0,0,1,2,5V57.91h-3V55.62h-.14a5.88,5.88,0,0,1-5.1,2.83,6.63,6.63,0,0,1-4.56-1.62,5.14,5.14,0,0,1-1.83-4,4.9,4.9,0,0,1,1.93-4.07,8.2,8.2,0,0,1,5.16-1.51,9.16,9.16,0,0,1,4.54,1v-.71a3.55,3.55,0,0,0-1.28-2.74,4.38,4.38,0,0,0-3-1.12,4.74,4.74,0,0,0-4.1,2.18l-2.72-1.71A7.59,7.59,0,0,1,212.58,40.9Zm-4,12a2.44,2.44,0,0,0,1,2,3.74,3.74,0,0,0,2.4.81,4.94,4.94,0,0,0,3.48-1.44,4.55,4.55,0,0,0,1.53-3.4,6.36,6.36,0,0,0-4-1.14,5.22,5.22,0,0,0-3.15.91A2.68,2.68,0,0,0,208.58,52.87Z"/><path class="cls-3" d="M245,55v3H230.33V54.82l5.95-6a52.78,52.78,0,0,0,4.13-4.59A5.29,5.29,0,0,0,241.55,41a3.36,3.36,0,0,0-1.17-2.58,4.32,4.32,0,0,0-3-1.08,4.13,4.13,0,0,0-2.72.94,4.24,4.24,0,0,0-1.48,2.29l-2.82-1.15a7.37,7.37,0,0,1,7.09-5,7.4,7.4,0,0,1,5.21,1.92,6.12,6.12,0,0,1,2.08,4.7q0,3.33-3.66,7.2L234.33,55Z"/><path class="cls-3" d="M247.94,46.41a13.8,13.8,0,0,1,2.59-8.63,8.19,8.19,0,0,1,13.31,0,13.8,13.8,0,0,1,2.58,8.6,14.07,14.07,0,0,1-2.58,8.64,8.21,8.21,0,0,1-13.31,0A14,14,0,0,1,247.94,46.41Zm15.32,0a11.67,11.67,0,0,0-1.68-6.52,5.07,5.07,0,0,0-8.8,0,11.67,11.67,0,0,0-1.68,6.52A11.83,11.83,0,0,0,252.78,53a5.08,5.08,0,0,0,8.8,0A11.72,11.72,0,0,0,263.26,46.41Z"/><path class="cls-3" d="M277.65,34.92v23h-3.09V38.75l-4.47,2-1.18-2.62,6.76-3.16Z"/><path class="cls-3" d="M289,49.51a7,7,0,0,1-5-2.19,7.28,7.28,0,0,1-2.18-5.24,7.17,7.17,0,0,1,2.35-5.38,7.86,7.86,0,0,1,11.12,0,7.36,7.36,0,0,1,2.29,5.41,12.26,12.26,0,0,1-2.25,6.35l-6.69,10-2.49-1.72,5.68-7.86-.07-.07A4.9,4.9,0,0,1,289,49.51ZM294.45,42A4.48,4.48,0,0,0,293,38.72a4.73,4.73,0,1,0-6.72,6.65,4.78,4.78,0,0,0,6.72,0A4.4,4.4,0,0,0,294.45,42Z"/></svg>